v -0.008697 0.005 -0.006205
v -0.008697 0 -0.006205
v 0 0.005 -0.028841
v 0 0 -0.028841
v 0 0.005 -0.028841
v 0 0 -0.028841
v 0 0.005 0.000638
v 0 0 0.000638
v 0.008697 0.005 -0.006205
v 0.008697 0 -0.006205
vn -0.6184 0 0.7859
vn -0.9335 0 -0.3587
vn 0 1 0
vn 0 0 1
vn 0.6184 0 0.7859
vn 0.9335 0 -0.3587
f 8//1 1//1 2//1
f 5//2 2//2 1//2
f 3//3 1//3 7//3
f 4//4 5//4 6//4
f 8//5 9//5 7//5
f 5//6 10//6 6//6
f 3//4 9//4 5//4
f 8//1 7//1 1//1
f 5//2 6//2 2//2
f 3//4 5//4 1//4
f 4//4 3//4 5//4
f 8//5 10//5 9//5
f 5//6 9//6 10//6
f 3//3 7//3 9//3
