v 0.010905 0.001143 0.009441
v 0.010905 0.002561 0.009441
v 0.010905 0.001143 0.007164
v 0.010905 0.002561 0.007164
v 0.008628 0.001143 0.009441
v 0.008628 0.002561 0.009441
v 0.008628 0.001143 0.007164
v 0.008628 0.002561 0.007164
v 0.000668 0.005 0.001868
v 0.000668 0 0.001868
v 0.000668 0.005 0.010392
v 0.000668 0 0.010392
v 0.010793 0.005 -0.000873
v 0.010793 0 -0.000873
v 0.009181 0.005 -0.004946
v 0.009181 0 -0.004946
vn 1 0 0
vn 0 0 -1
vn -1 0 0
vn 0 0 1
vn 0 1 0
vn 0.7438 0 0.6685
vn 0.9298 0 -0.3681
vn -0.6249 0 -0.7807
f 3//1 2//1 1//1
f 7//2 4//2 3//2
f 5//3 8//3 7//3
f 1//4 6//4 5//4
f 6//5 4//5 8//5
f 12//3 9//3 10//3
f 14//6 11//6 12//6
f 15//7 14//7 16//7
f 15//8 10//8 9//8
f 9//5 13//5 15//5
f 3//1 4//1 2//1
f 7//2 8//2 4//2
f 5//3 6//3 8//3
f 1//4 2//4 6//4
f 6//5 2//5 4//5
f 12//3 11//3 9//3
f 14//6 13//6 11//6
f 15//7 13//7 14//7
f 15//8 16//8 10//8
f 9//5 11//5 13//5
